<svg width="211" height="176" viewBox="0 0 211 176" fill="none" xmlns="http://www.w3.org/2000/svg">
<path d="M48.3542 76.9193L14.1634 107.147C5.02883 114.767 0 124.894 0 135.667C0 146.439 5.02883 156.574 14.1634 164.186C23.2979 171.805 35.4392 176 48.3542 176C61.2691 176 73.4104 171.805 82.545 164.186C101.403 148.456 101.403 122.87 82.7208 107.294L48.3542 76.9193ZM198.059 69.344L167.042 44.044L135.963 69.4026C118.819 83.7026 118.819 106.964 135.963 121.257C144.262 128.179 155.305 131.993 167.042 131.993C178.779 131.993 189.821 128.179 198.129 121.257C215.264 106.957 215.264 83.6953 198.059 69.344ZM87.9167 2.96997L63.0538 23.2613C56.4073 28.798 52.75 36.168 52.75 44C52.75 51.832 56.4073 59.202 63.045 64.7386C69.6828 70.2826 78.5184 73.3333 87.9167 73.3333C97.315 73.3333 106.142 70.2826 112.788 64.7386C126.503 53.2986 126.503 34.694 112.718 23.2026L87.9167 2.96997Z" fill="#BF0603"/>
</svg>
