<svg width="211" height="176" viewBox="0 0 211 176" fill="none" xmlns="http://www.w3.org/2000/svg">
<g clip-path="url(#clip0_148_33)">
<path d="M153.854 6.72467C143.954 6.85311 134.27 9.15826 125.78 13.4073C117.29 17.6564 110.295 23.6989 105.5 30.9247C100.705 23.6989 93.7097 17.6564 85.2197 13.4073C76.7296 9.15826 67.0456 6.85311 57.1458 6.72467C41.3642 7.2966 26.4955 13.0552 15.7879 22.7424C5.08031 32.4295 -0.595681 45.2579 -4.11756e-05 58.4247C-4.11756e-05 108.108 96.3214 165.491 100.418 167.926L105.5 170.925L110.582 167.926C114.678 165.506 211 108.108 211 58.4247C211.596 45.2579 205.92 32.4295 195.212 22.7424C184.504 13.0552 169.636 7.2966 153.854 6.72467Z" fill="#BF0603"/>
</g>
<defs>
<clipPath id="clip0_148_33">
<rect width="211" height="176" fill="white"/>
</clipPath>
</defs>
</svg>
