<svg width="211" height="176" viewBox="0 0 211 176" fill="none" xmlns="http://www.w3.org/2000/svg">
<g clip-path="url(#clip0_148_37)">
<path d="M1.87262 67.0634C-1.12533 63.8734 -0.448375 59.268 3.376 56.7674L78.4129 7.78802C94.3609 -2.61798 116.639 -2.62531 132.587 7.78802L207.624 56.7674C211.448 59.2607 212.125 63.8734 209.127 67.0634C207.395 68.9114 204.811 69.8794 202.2 69.8794C200.309 69.8794 198.393 69.3734 196.793 68.3247L121.756 19.3454C112.19 13.0974 98.8183 13.0974 89.253 19.3454L14.2073 68.3174C10.3742 70.8107 4.86179 70.2387 1.87262 67.0634ZM40.512 133.503C42.6835 134.889 43.9671 137.045 43.9671 139.333V168.667C43.9671 172.722 40.0372 176 35.1755 176H8.79167C3.92987 176 0 172.722 0 168.667C0 151.903 13.8117 136.591 32.8545 132.257C35.4832 131.67 38.3317 132.117 40.512 133.503ZM211.009 168.667C211.009 172.722 207.079 176 202.217 176H175.842C170.98 176 167.05 172.722 167.05 168.667V139.333C167.05 137.045 168.334 134.897 170.506 133.503C172.695 132.125 175.543 131.67 178.154 132.257C197.197 136.591 211.009 151.903 211.009 168.667ZM39.5625 80.6667C27.4212 80.6667 17.5833 88.8727 17.5833 99C17.5833 109.127 27.4212 117.333 39.5625 117.333C51.7038 117.333 61.5417 109.127 61.5417 99C61.5417 88.8727 51.7038 80.6667 39.5625 80.6667ZM193.417 99C193.417 88.8727 183.579 80.6667 171.437 80.6667C159.296 80.6667 149.458 88.8727 149.458 99C149.458 109.127 159.296 117.333 171.437 117.333C183.579 117.333 193.417 109.127 193.417 99ZM105.5 58.6667C93.3587 58.6667 83.5208 66.8727 83.5208 77C83.5208 87.1274 93.3587 95.3334 105.5 95.3334C117.641 95.3334 127.479 87.1274 127.479 77C127.479 66.8727 117.641 58.6667 105.5 58.6667ZM149.458 146.667V168.667C149.458 172.722 145.528 176 140.667 176H70.3333C65.4715 176 61.5417 172.722 61.5417 168.667V146.667C61.5417 126.449 81.2614 110 105.5 110C129.739 110 149.458 126.449 149.458 146.667Z" fill="#BF0603"/>
</g>
<defs>
<clipPath id="clip0_148_37">
<rect width="211" height="176" fill="white"/>
</clipPath>
</defs>
</svg>
